<?xml version="1.0" encoding="UTF-8" standalone="no"?>
<svg
   width="1526.0785"
   height="920.18646"
   viewBox="0 0 1526.0785 920.18646"
   fill="none"
   version="1.1"
   id="svg29"
   sodipodi:docname="robotics_system_level_control_architecture.svg"
   inkscape:version="1.4.3 (0d15f75, 2025-12-25)"
   inkscape:export-filename="/Users/neuroide/Downloads/robotics_system_level_control_architecture.png"
   inkscape:export-xdpi="96"
   inkscape:export-ydpi="96"
   xmlns:inkscape="http://www.inkscape.org/namespaces/inkscape"
   xmlns:sodipodi="http://sodipodi.sourceforge.net/DTD/sodipodi-0.dtd"
   xmlns="http://www.w3.org/2000/svg"
   xmlns:svg="http://www.w3.org/2000/svg">
  <sodipodi:namedview
     id="namedview29"
     pagecolor="#ffffff"
     bordercolor="#000000"
     borderopacity="0.25"
     inkscape:showpageshadow="2"
     inkscape:pageopacity="0.0"
     inkscape:pagecheckerboard="0"
     inkscape:deskcolor="#d1d1d1"
     inkscape:zoom="0.64116266"
     inkscape:cx="962.31431"
     inkscape:cy="885.11081"
     inkscape:window-width="2056"
     inkscape:window-height="1262"
     inkscape:window-x="0"
     inkscape:window-y="39"
     inkscape:window-maximized="1"
     inkscape:current-layer="svg29">
    <inkscape:page
       x="0"
       y="0"
       width="1526.0785"
       height="920.18646"
       id="page68"
       margin="0"
       bleed="0" />
  </sodipodi:namedview>
  <rect
     width="1526.0784"
     height="920"
     fill="#f6f2ea"
     id="rect1"
     x="-1.1368684e-13"
     y="0"
     style="display:inline;stroke-width:1.04406" />
  <rect
     x="18.081856"
     y="22.989092"
     width="1491.9965"
     height="878.02185"
     rx="34.536953"
     fill="#fffdf8"
     stroke="#18324a"
     stroke-width="4.54486"
     id="rect2"
     style="display:inline;stroke-width:4.3985;stroke-dasharray:none" />
  <text
     x="182.07843"
     y="72"
     fill="#18324A"
     font-family="Georgia, serif"
     font-size="46"
     font-weight="700"
     id="text2"
     style="font-style:normal;font-variant:normal;font-weight:bold;font-stretch:normal;font-size:40px;font-family:Georgia, serif;-inkscape-font-specification:'Georgia, serif, Bold';font-variant-ligatures:normal;font-variant-caps:normal;font-variant-numeric:normal;font-variant-east-asian:normal;fill:#18324a">Hierarchical Control Architecture for Intralogistics Robotics</text>
  <text
     x="206.07843"
     y="116"
     fill="#5e6775"
     font-family="Arial, sans-serif"
     font-size="24px"
     id="text3"
     style="font-style:normal;font-variant:normal;font-weight:normal;font-stretch:normal;font-size:29.3333px;font-family:Arial, sans-serif;-inkscape-font-specification:'Arial, sans-serif, Normal';font-variant-ligatures:normal;font-variant-caps:normal;font-variant-numeric:normal;font-variant-east-asian:normal;fill:#5e6775"><tspan
       sodipodi:role="line"
       id="tspan29"
       x="206.07843"
       y="116">Fleet-scale behavior emerges from coupled feedback between estimation, coordination,</tspan><tspan
       sodipodi:role="line"
       id="tspan30"
       x="206.07843"
       y="152.66663">execution, and supervisory recovery.</tspan></text>
  <defs
     id="defs4">
    <marker
       style="overflow:visible"
       id="RoundedArrow"
       refX="0"
       refY="0"
       orient="auto-start-reverse"
       inkscape:stockid="Rounded arrow"
       markerWidth="1"
       markerHeight="1"
       viewBox="0 0 1 1"
       inkscape:isstock="true"
       inkscape:collect="always"
       preserveAspectRatio="xMidYMid">
      <path
         transform="scale(0.7)"
         d="m -0.21114562,-4.1055728 6.42229122,3.21114561 a 1,1 90 0 1 0,1.78885438 L -0.21114562,4.1055728 A 1.236068,1.236068 31.717474 0 1 -2,3 v -6 a 1.236068,1.236068 148.28253 0 1 1.78885438,-1.1055728 z"
         style="fill:context-stroke;fill-rule:evenodd;stroke:none"
         id="path12" />
    </marker>
    <marker
       style="overflow:visible"
       id="marker6"
       refX="0"
       refY="0"
       orient="auto-start-reverse"
       inkscape:stockid="Rounded arrow"
       markerWidth="1"
       markerHeight="1"
       viewBox="0 0 1 1"
       inkscape:isstock="true"
       inkscape:collect="always"
       preserveAspectRatio="xMidYMid">
      <path
         transform="scale(0.7)"
         d="m -0.21114562,-4.1055728 6.42229122,3.21114561 a 1,1 90 0 1 0,1.78885438 L -0.21114562,4.1055728 A 1.236068,1.236068 31.717474 0 1 -2,3 v -6 a 1.236068,1.236068 148.28253 0 1 1.78885438,-1.1055728 z"
         style="fill:context-stroke;fill-rule:evenodd;stroke:none"
         id="path6" />
    </marker>
    <marker
       id="arrowMain"
       markerWidth="14"
       markerHeight="14"
       refX="10"
       refY="7"
       orient="auto"
       markerUnits="strokeWidth">
      <path
         d="M 0,0 14,7 0,14 4.5,7 Z"
         fill="#18324a"
         id="path3" />
    </marker>
    <marker
       id="arrowSoft"
       markerWidth="8"
       markerHeight="8"
       refX="10"
       refY="7"
       orient="auto"
       markerUnits="strokeWidth"
       viewBox="0 0 14 14"
       preserveAspectRatio="xMidYMid">
      <path
         d="M 0,0 14,7 0,14 4.5,7 Z"
         fill="#6d7a88"
         id="path4" />
    </marker>
    <marker
       id="arrowSoft-6"
       markerWidth="8"
       markerHeight="8"
       refX="10"
       refY="7"
       orient="auto"
       markerUnits="strokeWidth"
       viewBox="0 0 14 14"
       preserveAspectRatio="xMidYMid">
      <path
         d="M 0,0 14,7 0,14 4.5,7 Z"
         fill="#6d7a88"
         id="path4-7" />
    </marker>
    <marker
       style="overflow:visible"
       id="RoundedArrow-5"
       refX="0"
       refY="0"
       orient="auto-start-reverse"
       inkscape:stockid="Rounded arrow"
       markerWidth="1"
       markerHeight="1"
       viewBox="0 0 1 1"
       inkscape:isstock="true"
       inkscape:collect="always"
       preserveAspectRatio="xMidYMid">
      <path
         transform="scale(0.7)"
         d="m -0.21114562,-4.1055728 6.42229122,3.21114561 a 1,1 90 0 1 0,1.78885438 L -0.21114562,4.1055728 A 1.236068,1.236068 31.717474 0 1 -2,3 v -6 a 1.236068,1.236068 148.28253 0 1 1.78885438,-1.1055728 z"
         style="fill:context-stroke;fill-rule:evenodd;stroke:none"
         id="path12-4" />
    </marker>
  </defs>
  <rect
     x="170.07843"
     y="217"
     width="1040"
     height="92"
     rx="18"
     fill="#18324a"
     id="rect4" />
  <text
     x="206.07843"
     y="272"
     fill="#fffdf8"
     font-family="Arial, sans-serif"
     font-size="30px"
     font-weight="700"
     id="text4">External Inputs</text>
  <text
     x="454.07843"
     y="272"
     fill="#dce8f2"
     font-family="Arial, sans-serif"
     font-size="23px"
     id="text5">Orders, task arrivals, layout constraints, safety rules, operating conditions</text>
  <g
     id="rect5"
     style="opacity:1"
     transform="translate(110.07843,2)">
    <path
       style="baseline-shift:baseline;display:inline;overflow:visible;vector-effect:none;fill:#dce9f7;enable-background:accumulate;stop-color:#000000;stop-opacity:1"
       d="M 50,352 H 1110 V 472 H 50 Z"
       id="path8" />
    <path
       style="baseline-shift:baseline;display:inline;overflow:visible;vector-effect:none;fill:#18324a;enable-background:accumulate;stop-color:#000000;stop-opacity:1"
       d="m 48.5,350.5 v 123 h 1063 v -123 z m 3,3 h 1057 v 117 H 51.5 Z"
       id="path9" />
  </g>
  <text
     x="198.07843"
     y="406"
     fill="#18324a"
     font-family="Arial, sans-serif"
     font-size="30px"
     font-weight="700"
     id="text6">Perception and State Estimation</text>
  <text
     x="198.07843"
     y="444"
     fill="#344054"
     font-family="Arial, sans-serif"
     font-size="23px"
     id="text7">Robot localization, traffic state, queue state, resource availability, blockage detection</text>
  <g
     id="rect7"
     style="opacity:1"
     transform="translate(110.07843,2)">
    <path
       style="baseline-shift:baseline;display:inline;overflow:visible;vector-effect:none;fill:#e7f5e8;enable-background:accumulate;stop-color:#000000;stop-opacity:1"
       d="m 72,517 h 1016 c 12.188,0 22,9.812 22,22 v 106 c 0,12.188 -9.812,22 -22,22 H 72 C 59.812,667 50,657.188 50,645 V 539 c 0,-12.188 9.812,-22 22,-22 z"
       id="path29" />
    <path
       style="baseline-shift:baseline;display:inline;overflow:visible;vector-effect:none;fill:#285c42;enable-background:accumulate;stop-color:#000000;stop-opacity:1"
       d="m 72,515.5 c -12.993054,0 -23.5,10.50695 -23.5,23.5 v 106 c 0,12.99305 10.506946,23.5 23.5,23.5 h 1016 c 12.9931,0 23.5,-10.50695 23.5,-23.5 V 539 c 0,-12.99305 -10.5069,-23.5 -23.5,-23.5 z m 0,3 h 1016 c 11.3829,0 20.5,9.11705 20.5,20.5 v 106 c 0,11.38295 -9.1171,20.5 -20.5,20.5 H 72 C 60.617054,665.5 51.5,656.38295 51.5,645 V 539 c 0,-11.38295 9.117054,-20.5 20.5,-20.5 z"
       id="path30" />
  </g>
  <text
     x="198.07843"
     y="572"
     fill="#285c42"
     font-family="Arial, sans-serif"
     font-size="30px"
     font-weight="700"
     id="text8">Decision Layer</text>
  <text
     x="198.07843"
     y="610"
     fill="#304036"
     font-family="Arial, sans-serif"
     font-size="23px"
     id="text9">Task allocation, route planning, resource scheduling, reservation logic, conflict resolution</text>
  <text
     x="198.07843"
     y="644"
     fill="#4d5b52"
     font-family="Arial, sans-serif"
     font-size="20px"
     id="text10">Coupled control inputs: u_alloc, u_plan, u_sched</text>
  <rect
     x="160.07843"
     y="714"
     width="1060"
     height="120"
     rx="22"
     fill="#f9e8d9"
     stroke="#7a4d20"
     stroke-width="3"
     id="rect10" />
  <text
     x="198.07843"
     y="766"
     fill="#7a4d20"
     font-family="Arial, sans-serif"
     font-size="30px"
     font-weight="700"
     id="text11">Execution Layer and Observed Outcomes</text>
  <text
     x="198.07843"
     y="804"
     fill="#5a3c24"
     font-family="Arial, sans-serif"
     font-size="23px"
     id="text12">Fleet motion, pickup and drop-off, charging, docking, throughput, latency, congestion, energy, safety</text>
  <g
     id="g5"
     transform="translate(110.07843,-210.29236)">
    <g
       id="g6"
       transform="translate(-439.37966,293.4516)">
      <g
         id="rect12"
         style="opacity:1">
        <path
           style="baseline-shift:baseline;display:inline;overflow:visible;vector-effect:none;fill:#f0e5f8;enable-background:accumulate;stop-color:#000000;stop-opacity:1"
           d="m 1642.1814,379.55499 h 165.1744 c 10.3592,0 18.699,8.33975 18.699,18.69899 v 237.95231 c 0,10.35924 -8.3398,18.69898 -18.699,18.69898 h -165.1744 c -10.3592,0 -18.699,-8.33974 -18.699,-18.69898 V 398.25398 c 0,-10.35924 8.3398,-18.69899 18.699,-18.69899 z"
           id="path10" />
        <path
           style="baseline-shift:baseline;display:inline;overflow:visible;vector-effect:none;fill:#5b2e72;enable-background:accumulate;stop-color:#000000;stop-opacity:1"
           d="m 1642.1816,378.23047 c -11.0703,0 -20.0234,8.95314 -20.0234,20.02344 v 237.95312 c 0,11.0703 8.9531,20.02344 20.0234,20.02344 h 165.1739 c 11.0703,0 20.0234,-8.95314 20.0234,-20.02344 V 398.25391 c 0,-11.0703 -8.9531,-20.02344 -20.0234,-20.02344 z m 0,2.64844 h 165.1739 c 9.6481,0 17.375,7.72682 17.375,17.375 v 237.95312 c 0,9.64818 -7.7269,17.37305 -17.375,17.37305 h -165.1739 c -9.6481,0 -17.375,-7.72487 -17.375,-17.37305 V 398.25391 c 0,-9.64818 7.7269,-17.375 17.375,-17.375 z"
           id="path11" />
      </g>
      <text
         x="1629.5874"
         y="425.34293"
         fill="#5b2e72"
         font-family="Arial, sans-serif"
         font-size="29px"
         font-weight="700"
         id="text13"><tspan
           sodipodi:role="line"
           id="tspan1"
           x="1629.5874"
           y="425.34293">Supervisory</tspan><tspan
           sodipodi:role="line"
           id="tspan2"
           x="1629.5874"
           y="461.59293">Control</tspan></text>
      <text
         x="1635.5874"
         y="505.7301"
         fill="#50385b"
         font-family="Arial, sans-serif"
         font-size="22px"
         id="text14">Replanning</text>
      <text
         x="1635.5874"
         y="539.7301"
         fill="#50385b"
         font-family="Arial, sans-serif"
         font-size="22px"
         id="text15">Exception handling</text>
      <text
         x="1635.5874"
         y="573.7301"
         fill="#50385b"
         font-family="Arial, sans-serif"
         font-size="22px"
         id="text16">Recovery logic</text>
      <text
         x="1633.4644"
         y="606.10803"
         fill="#50385b"
         font-family="Arial, sans-serif"
         font-size="22px"
         id="text17">Adaptive tuning</text>
    </g>
  </g>
  <path
     d="m 690.07843,309 v 45"
     stroke="#18324a"
     stroke-width="7"
     stroke-linecap="round"
     marker-end="url(#arrowMain)"
     id="path19"
     style="stroke-width:2;stroke-dasharray:none" />
  <path
     d="m 690.07843,474 v 45"
     stroke="#18324a"
     stroke-width="7"
     stroke-linecap="round"
     marker-end="url(#arrowMain)"
     id="path20"
     style="stroke-width:2;stroke-dasharray:none" />
  <path
     d="m 690.07843,669 v 45"
     stroke="#18324a"
     stroke-width="7"
     stroke-linecap="round"
     marker-end="url(#arrowMain)"
     id="path21"
     style="stroke-width:2;stroke-dasharray:none" />
  <text
     x="92.212502"
     y="837.56671"
     fill="#6d7a88"
     font-family="Arial, sans-serif"
     font-size="18px"
     id="text28"
     style="font-style:normal;font-variant:normal;font-weight:bold;font-stretch:normal;font-size:18.1666px;font-family:Georgia, serif;-inkscape-font-specification:'Georgia, serif, Bold';font-variant-ligatures:normal;font-variant-caps:normal;font-variant-numeric:normal;font-variant-east-asian:normal;text-align:center;text-anchor:middle;fill:#6d7a88;stroke-width:0.681625"
     transform="scale(1.0485075,0.95373658)"><tspan
       sodipodi:role="line"
       id="tspan83"
       x="92.212502"
       y="837.56671"
       style="font-style:normal;font-variant:normal;font-weight:bold;font-stretch:normal;font-size:18.1666px;font-family:Georgia, serif;-inkscape-font-specification:'Georgia, serif, Bold';font-variant-ligatures:normal;font-variant-caps:normal;font-variant-numeric:normal;font-variant-east-asian:normal;stroke-width:0.681625">Observed</tspan><tspan
       sodipodi:role="line"
       id="tspan84"
       x="92.212502"
       y="860.27496"
       style="font-style:normal;font-variant:normal;font-weight:bold;font-stretch:normal;font-size:18.1666px;font-family:Georgia, serif;-inkscape-font-specification:'Georgia, serif, Bold';font-variant-ligatures:normal;font-variant-caps:normal;font-variant-numeric:normal;font-variant-east-asian:normal;stroke-width:0.681625">Performance</tspan><tspan
       sodipodi:role="line"
       x="92.212502"
       y="882.98322"
       id="tspan86"
       style="font-style:normal;font-variant:normal;font-weight:bold;font-stretch:normal;font-size:18.1666px;font-family:Georgia, serif;-inkscape-font-specification:'Georgia, serif, Bold';font-variant-ligatures:normal;font-variant-caps:normal;font-variant-numeric:normal;font-variant-east-asian:normal;stroke-width:0.681625">feedback</tspan></text>
  <text
     x="95.146698"
     y="455.20599"
     fill="#6d7a88"
     font-family="Arial, sans-serif"
     font-size="18px"
     id="text29"
     style="font-style:normal;font-variant:normal;font-weight:bold;font-stretch:normal;font-size:19.855px;font-family:Georgia, serif;-inkscape-font-specification:'Georgia, serif, Bold';font-variant-ligatures:normal;font-variant-caps:normal;font-variant-numeric:normal;font-variant-east-asian:normal;text-align:center;text-anchor:middle;fill:#6d7a88;stroke-width:0.791659"
     transform="scale(1.1821812,0.84589402)"><tspan
       sodipodi:role="line"
       id="tspan87"
       x="95.146698"
       y="455.20599"
       style="font-style:normal;font-variant:normal;font-weight:bold;font-stretch:normal;font-size:19.855px;font-family:Georgia, serif;-inkscape-font-specification:'Georgia, serif, Bold';font-variant-ligatures:normal;font-variant-caps:normal;font-variant-numeric:normal;font-variant-east-asian:normal;stroke-width:0.791659">state</tspan><tspan
       sodipodi:role="line"
       id="tspan88"
       x="95.146698"
       y="480.02475"
       style="font-style:normal;font-variant:normal;font-weight:bold;font-stretch:normal;font-size:19.855px;font-family:Georgia, serif;-inkscape-font-specification:'Georgia, serif, Bold';font-variant-ligatures:normal;font-variant-caps:normal;font-variant-numeric:normal;font-variant-east-asian:normal;stroke-width:0.791659">refresh</tspan></text>
  <text
     x="110.77657"
     y="542.40924"
     fill="#6d7a88"
     font-family="Arial, sans-serif"
     font-size="18px"
     id="text29-8"
     style="font-style:normal;font-variant:normal;font-weight:bold;font-stretch:normal;font-size:19.24px;font-family:Georgia, serif;-inkscape-font-specification:'Georgia, serif, Bold';font-variant-ligatures:normal;font-variant-caps:normal;font-variant-numeric:normal;font-variant-east-asian:normal;text-align:center;text-anchor:middle;fill:#6d7a88;stroke-width:0.767139"
     transform="scale(0.98429885,1.0159516)"><tspan
       sodipodi:role="line"
       id="tspan89"
       x="110.77657"
       y="542.40924"
       style="font-style:normal;font-variant:normal;font-weight:bold;font-stretch:normal;font-size:19.24px;font-family:Georgia, serif;-inkscape-font-specification:'Georgia, serif, Bold';font-variant-ligatures:normal;font-variant-caps:normal;font-variant-numeric:normal;font-variant-east-asian:normal;stroke-width:0.767139">Decision</tspan><tspan
       sodipodi:role="line"
       id="tspan90"
       x="110.77657"
       y="566.45923"
       style="font-style:normal;font-variant:normal;font-weight:bold;font-stretch:normal;font-size:19.24px;font-family:Georgia, serif;-inkscape-font-specification:'Georgia, serif, Bold';font-variant-ligatures:normal;font-variant-caps:normal;font-variant-numeric:normal;font-variant-east-asian:normal;stroke-width:0.767139">Correction</tspan></text>
  <path
     style="fill:none;fill-opacity:1;stroke:none;stroke-width:3;stroke-linecap:square;stroke-linejoin:round;stroke-miterlimit:15.1;stroke-dasharray:none;stroke-dashoffset:0;stroke-opacity:1;paint-order:fill markers stroke"
     id="path46"
     d="m 122.68953,846.92547 c -0.65903,6.08899 -0.85883,12.21967 -0.76468,18.34001 1.14705,11.63548 7.0447,19.90873 14.50927,28.45918 11.59408,12.05248 25.91874,20.92039 41.30193,27.40577 6.53234,2.2745 13.80595,4.81088 20.79719,2.96039 1.18714,-0.31422 2.29026,-0.88703 3.43538,-1.33055 7.87333,-4.14154 10.72028,-12.6998 13.66257,-20.53604 2.31657,-6.7095 4.25775,-13.54158 5.63722,-20.50511 0.40259,-2.24645 0.89299,-4.51142 0.68057,-6.80003 -0.15572,-0.38992 -0.23958,-0.81692 -0.46715,-1.16975 -2.14577,-3.32681 -9.2544,-7.28403 -12.5501,-9.31882 -12.59697,-7.99507 -23.7982,-14.28698 -37.9708,-18.0048 -5.19304,-1.15822 -10.47931,-2.28533 -15.83239,-2.18662 -2.14963,0.0396 -4.12942,0.34094 -6.25044,0.60777 -5.24725,1.04796 -9.11694,4.18651 -12.78407,7.85898 -2.34473,2.53849 -4.95922,4.80257 -7.27966,7.36279 -0.80681,0.9388 -1.60753,1.88224 -2.43353,2.80433 0,0 12.88858,7.75893 12.88858,7.75893 v 0 c 0.77173,-0.94957 1.56477,-1.88138 2.3294,-2.8366 2.22558,-2.58445 4.78599,-4.85431 7.08405,-7.37312 3.47276,-3.45225 7.17525,-6.30929 12.17057,-7.09405 7.35761,-0.86135 14.36906,-0.0756 21.52561,1.87039 4.46531,1.28222 8.83994,2.69032 13.09821,4.57248 1.45498,0.64311 5.59145,3.00078 4.29718,2.07588 -2.60622,-1.86242 -5.52589,-3.24228 -8.26152,-4.90881 -1.29934,-0.79156 2.63475,1.52236 3.95212,2.28354 4.52005,2.74087 9.14146,5.50128 13.00176,9.14963 0.68491,2.02156 -0.14819,4.35339 -0.23146,6.4141 -1.10993,6.96252 -2.90921,13.77335 -5.18827,20.44582 -2.80538,7.44607 -5.51388,15.65435 -13.15587,19.37603 -1.08321,0.35785 -2.13421,0.83435 -3.24964,1.07355 -6.82909,1.46451 -13.79776,-1.141 -20.1083,-3.40824 -6.85786,-3.02572 -7.45026,-3.55653 2.16058,2.20205 1.61214,0.96596 -3.23371,-1.92184 -4.77969,-2.99049 -5.19494,-3.59099 -9.97981,-7.79084 -14.42613,-12.26202 -7.37241,-8.14818 -13.34802,-16.12983 -14.6109,-27.38674 -0.12615,-5.97378 0.10923,-11.98599 1.03061,-17.8975 z" />
  <path
     style="fill:none;fill-opacity:1;stroke:none;stroke-width:3;stroke-linecap:square;stroke-linejoin:round;stroke-miterlimit:15.1;stroke-dasharray:none;stroke-dashoffset:0;stroke-opacity:1;paint-order:fill markers stroke"
     d="M 170.07843,263 44.997421,263.70874 V 787.12622 H 110.07843 42.228017 l 2.769404,-527.57159 z"
     id="path47" />
  <path
     style="fill:none;fill-opacity:1;stroke:#0a1011;stroke-width:3.82287;stroke-linecap:square;stroke-linejoin:round;stroke-miterlimit:15.1;stroke-dasharray:7.64576, 7.64576;stroke-dashoffset:0;stroke-opacity:1;marker-end:url(#arrowSoft);paint-order:fill markers stroke"
     d="M 160.05533,785.1995 C 34.619809,782.88023 -13.680369,467.57948 151.36321,418.4522"
     id="path67"
     sodipodi:nodetypes="cc" />
  <path
     style="fill:none;fill-opacity:1;stroke:#0a1011;stroke-width:3.7;stroke-linecap:square;stroke-linejoin:round;stroke-miterlimit:15.1;stroke-dasharray:7.39998, 7.39998;stroke-dashoffset:0;stroke-opacity:1;marker-end:url(#arrowSoft-6);paint-order:fill markers stroke"
     d="M 156.46446,756.25435 C 85.46544,755.17942 58.126569,609.04397 151.54455,586.27449"
     id="path67-9"
     sodipodi:nodetypes="cc" />
  <path
     style="fill:#000000;stroke:#172829;stroke-width:4;stroke-linecap:square;stroke-linejoin:round;stroke-miterlimit:15.1;stroke-dasharray:none;stroke-dashoffset:0;stroke-opacity:1;marker-start:url(#marker6);paint-order:fill markers stroke"
     d="m 1234.5476,600.38971 h 58.3094"
     id="path1" />
  <path
     style="fill:#000000;stroke-width:3.7;stroke-linecap:square;stroke-linejoin:round;stroke-miterlimit:15.1;stroke-dasharray:7.39998, 7.39998;paint-order:fill markers stroke"
     d="m 899.92764,1023.1413 c 21.31544,0 42.63089,0 63.94633,0 36.39223,0 72.78443,0 109.17663,0 11.4376,0 22.8751,0 34.3127,0 1.2012,0 18.788,0 14.037,0"
     id="path2" />
  <path
     style="fill:#000000;stroke-width:3.7;stroke-linecap:square;stroke-linejoin:round;stroke-miterlimit:15.1;stroke-dasharray:7.39998, 7.39998;paint-order:fill markers stroke"
     d="m 1073.0506,1023.1413 215.234,3.1193"
     id="path5" />
  <path
     style="fill:none;stroke:#172829;stroke-width:3.73231;stroke-linecap:square;stroke-linejoin:round;stroke-miterlimit:15.1;stroke-dasharray:none;stroke-dashoffset:0;stroke-opacity:1;marker-start:url(#RoundedArrow);paint-order:fill markers stroke"
     d="m 1241.9811,783.37593 151.7447,1.1375 -0.2585,-43.12372"
     id="path7"
     sodipodi:nodetypes="ccc" />
  <path
     style="fill:none;stroke:#172829;stroke-width:3.73231;stroke-linecap:square;stroke-linejoin:round;stroke-miterlimit:15.1;stroke-dasharray:none;stroke-dashoffset:0;stroke-opacity:1;marker-start:url(#RoundedArrow-5);paint-order:fill markers stroke"
     d="m 1241.6711,413.08197 151.7447,-1.1375 -0.2585,47.77411"
     id="path7-8"
     sodipodi:nodetypes="ccc" />
</svg>
