<?xml version="1.0" encoding="UTF-8" standalone="no"?>
<!-- Created with Inkscape (http://www.inkscape.org/) -->

<svg
   version="1.1"
   id="svg1"
   width="2490.7332"
   height="360.39246"
   viewBox="0 0 2490.7332 360.39246"
   sodipodi:docname="neuroide.svg"
   inkscape:version="1.4.3 (0d15f75, 2025-12-25)"
   xmlns:inkscape="http://www.inkscape.org/namespaces/inkscape"
   xmlns:sodipodi="http://sodipodi.sourceforge.net/DTD/sodipodi-0.dtd"
   xmlns="http://www.w3.org/2000/svg"
   xmlns:svg="http://www.w3.org/2000/svg">
  <sodipodi:namedview
     id="namedview1"
     pagecolor="#ffffff"
     bordercolor="#000000"
     borderopacity="0.25"
     inkscape:showpageshadow="2"
     inkscape:pageopacity="0.0"
     inkscape:pagecheckerboard="0"
     inkscape:deskcolor="#d1d1d1"
     inkscape:zoom="0.15889123"
     inkscape:cx="1504.1737"
     inkscape:cy="1022.7122"
     inkscape:window-width="2056"
     inkscape:window-height="1234"
     inkscape:window-x="0"
     inkscape:window-y="39"
     inkscape:window-maximized="0"
     inkscape:current-layer="svg1" />
  <defs
     id="defs1">
    <clipPath
       clipPathUnits="userSpaceOnUse"
       id="clipPath3">
      <rect
         style="opacity:0.865952;fill:#ffffff;stroke:#3f3f3f;stroke-width:3.66832;stroke-linejoin:bevel;stroke-opacity:0.930535;paint-order:markers fill stroke"
         id="rect3"
         width="444.67645"
         height="370.19434"
         x="758.7312"
         y="509.68155" />
    </clipPath>
  </defs>
  <g
     id="g2">
    <g
       id="g1"
       transform="translate(1029.9478,-752.63512)">
      <path
         style="fill:#333c83;stroke:none"
         d="m 976.31629,870.55375 c 10.81458,-7.62384 9,-17.07263 9,-29 0,-21.36914 -1,-42.60815 -1,-64 0,-7.38928 -2.40149,-19.84119 2.3179,-25.98534 5.64667,-7.35139 14.68571,-12.98185 21.68211,-19.01466 17.9262,-15.45724 41.3215,-44.82098 66,-44.82098 8.7592,0 24.8757,-1.83579 32.8958,1.42437 10.8317,4.40305 13.2122,17.52338 28.1042,11.83332 17.4555,-6.66956 14.8567,-33.90287 -4,-36.25153 -7.3985,-0.92151 -14.3737,1.74271 -18.7508,7.90509 -2.1045,2.96292 -2.7456,7.76608 -6.3827,9.30634 -9.8581,4.17477 -28.1508,0.60339 -38.8665,0.60339 7.9415,-7.31476 17.7697,-13.79416 24.7253,-22.03937 3.9116,-4.63678 4.8434,-11.18194 8.7731,-15.74768 4.2156,-4.89779 10.4178,-5.76358 13.2878,-12.21371 5.5671,-12.51114 -3.7773,-27.23077 -17.7862,-26.73535 -20.7592,0.73413 -24.902,29.4125 -6,36.73611 -4.4344,12.9975 -16.8682,20.93384 -27,29.43826 -18.2511,15.31961 -35.4359,32.94245 -55,46.56174 v -29 c 0,-3.82874 -0.9541,-9.26178 1.0278,-12.71063 6.5965,-11.47949 24.9103,-21.49979 34.9722,-30.15897 3.3619,-2.89325 8.6638,-6.0495 10.3966,-10.30017 4.3868,-10.76099 0.6034,-30.19143 0.6034,-41.83023 31.4539,-6.08615 2.1941,-55.634 -19.7222,-28.98456 -2.3062,2.8043 -3.7286,6.36899 -4.0787,9.98456 -0.4405,4.54859 1.2444,8.82419 2.8009,13 -19.0516,9.87073 -35.3589,29.45935 -52.00001,43 l 1.02777,-20.71371 20.94444,-19.45606 1.0278,-28.83023 c 25.0973,-3.96972 15.736,-43.35052 -9.00001,-36.21063 -11.94525,3.44791 -17.67444,17.59048 -11.0054,28.20679 2.58105,4.10873 8.55624,5.96585 10.40201,10.21679 1.8421,4.24253 1.62573,15.47113 0,19.7724 -3.86762,10.23285 -20.34198,13.1522 -23.07871,24.01542 -2.26987,9.01016 0.6821,19.81594 0.6821,28.99923 0,23.03903 -0.0453,46.0304 0.96063,69 2.3819,54.39021 2.03937,109.58685 2.03937,164 m -59,-342.53241 c -14.82664,2.77808 -19.25198,15.18503 -31.03935,21.21451 -9.4547,4.83627 -19.21834,3.76074 -27.95679,11.50308 -6.88327,6.09864 -8.57979,16.71469 -15.22839,22.11576 -12.23833,9.94192 -24.37157,13.39721 -30.84954,29.69906 -4.65437,11.71277 0.0625,24.25604 -3.41667,34.99615 -2.7577,8.51301 -13.6176,15.25528 -17.60879,24.00385 -6.51814,14.28754 -7.04315,30.14078 -2.15124,45 1.63087,4.95377 5.91038,9.56726 6.89352,14.57562 0.98198,5.0025 -2.03711,12.24005 -2.46914,17.42438 -0.68145,8.17747 1.9852,17.61128 5.34414,25 4.07886,8.97232 11.25792,16.97403 19.48225,22.30093 4.19537,2.71735 11.19667,4.2941 14.39661,8.11728 2.55389,3.0513 2.15365,8.83591 3.34953,12.58179 2.30946,7.23401 5.99397,14.07275 10.77161,19.98535 7.07733,8.75861 18.5189,14.83942 29.48225,16.91974 4.631,0.87872 10.60135,-0.007 14.91049,1.6983 4.76949,1.88776 8.03125,7.76999 12.08951,10.8642 8.51917,6.49542 20.72426,7.9021 31,5.71375 34.16733,-7.2764 25,-52.53205 25,-78.18134 v -209 c 0,-10.86847 2.19348,-24.50512 -0.78857,-35 -5.02112,-17.67099 -24.40421,-24.68158 -41.21143,-21.53241 m 84.99921,7.3125 c 12.1214,0.69687 10.9439,19.20526 -0.9992,18.70139 -12.27745,-0.51798 -11.13426,-19.39896 0.9992,-18.70139 M 845.31629,804.55375 c 11.55386,-0.0956 22.8568,-3.61493 31.99924,-10.81946 2.75268,-2.16919 10.8331,-8.81546 4.75692,-12.09796 -3.45741,-1.8678 -7.21081,1.80609 -9.75616,3.68286 -6.38155,4.70532 -13.16338,7.58417 -21,8.79553 -32.19505,4.97663 -48.09396,-28.0278 -46,-54.56097 19.97925,8.29155 34.31804,16.95387 57,15.96065 3.65083,-0.15987 26.60461,-2.04441 19.62346,-9.62886 -2.98158,-3.23926 -7.9718,-1.10108 -11.62346,-0.62116 -9.83626,1.29276 -19.21547,1.08396 -29,-0.63424 -13.21454,-2.32053 -28.08604,-8.97587 -36.21451,-20.08024 -12.80961,-17.49932 -12.1589,-54.53393 10.21451,-64.99615 8.64664,14.97583 26.1015,27.24014 44,26.74072 4.80811,-0.13415 25.52672,-2.79651 23.38734,-10.59723 -0.89099,-3.24881 -4.85846,-2.96798 -7.38734,-2.37881 -10.0311,2.337 -18.73506,4.85229 -29,1.48608 -26.65567,-8.74124 -35.70345,-43.05246 -20.27547,-65.24999 4.37365,-6.29273 10.53226,-12.50251 18.27547,-14.00077 0.61513,14.10849 9.05627,27.11905 21,34.53241 3.17455,1.9704 15.59486,9.30286 17.53857,2.33487 1.40773,-5.04654 -16.93924,-12.16974 -20.21295,-15.90741 -17.26867,-19.71615 -6.00436,-54.69504 21.67438,-55.95987 -4.61111,19.14621 0.88397,37.17755 15.01466,50.95987 8.74672,8.5311 19.73806,14.108 26.1088,25.04013 4.91159,8.42822 5.4805,16.67828 7.02391,25.98456 0.39944,2.40851 1.85117,5.21335 4.76312,4.83951 4.68692,-0.60169 4.2023,-7.52979 3.80322,-10.82407 -1.225,-10.11224 -4.60873,-19.45108 -10.15351,-28 -7.55066,-11.64154 -20.5812,-17.36603 -28.87964,-28.00384 -15.43293,-19.78354 -11.52513,-53.45124 15.31944,-61.20835 3.09779,-0.89514 6.77287,-1.44076 10,-1.3287 29.20203,1.01395 22,38.92966 22,58.54089 v 181 48 c 0,8.14865 1.15054,17.61783 -3.08875,25 -7.23526,12.59927 -25.73875,15.45374 -36.90739,6.60956 -4.27869,-3.38819 -6.93169,-10.89411 -11.68364,-13.15741 -5.21619,-2.48438 -13.55105,0.10971 -19.32022,-1.12113 -18.00789,-3.84195 -32.19348,-19.83279 -33,-38.33102 m 203.00381,-236.5509 c 11.9796,-2.96051 16.2794,15.64935 3.9923,18.14117 -11.8738,2.40802 -15.7308,-15.2402 -3.9923,-18.14117 m -64.00381,171.5509 c -0.002,-21.78983 -0.0839,-44.18207 -1.03937,-66 -0.35986,-8.21735 -3.85797,-21.32751 0.0671,-28.98535 4.93463,-9.62744 19.73438,-18.20886 27.97228,-25.09491 8.0434,-6.72354 15.8667,-13.71249 24,-20.32867 2.2137,-1.80081 6.2839,-5.79624 9.3966,-3.54401 2.3837,1.72482 1.6022,6.43778 1.6034,8.95294 0,7.72547 2.5419,21.02087 -1.0278,27.98535 -8.8459,17.25821 -35.3818,23.46213 -44.9445,40.30014 -2.0929,3.6853 -1.02771,9.6247 -1.02771,13.71451 0,11.03793 3.67861,29.79166 -0.31326,39.98535 -2.10749,5.38165 -9.96692,10.06293 -14.68674,13.01465 m 110.00381,-123.5625 c 11.5951,-3.05246 16.5947,14.21832 4.9815,17.66821 -11.439,3.39817 -16.6366,-14.59994 -4.9815,-17.66821 m 31.997,58.03625 c 11.0569,-2.48031 16.3691,14.94391 4.9838,18.09183 -12.4474,3.44156 -17.4799,-15.28869 -4.9838,-18.09183 m -195.89664,14.61268 c -3.86476,1.78262 -6.08465,7.72723 -8.72301,10.89892 -5.22431,6.28043 -12.449,11.357 -20.38116,13.52466 -8.36082,2.28482 -16.81978,1.84228 -25,-0.86493 -3.42342,-1.13296 -8.44359,-3.82809 -11.35262,-0.20834 -5.08619,6.32882 8.76912,9.33621 12.35262,10.13809 13.82564,3.09372 27.73419,1.26855 40,-5.92282 7.34245,-4.30484 13.94998,-10.97925 17.72147,-18.65201 1.75476,-3.56989 1.82153,-11.88348 -4.6173,-8.91357 m 74.89584,168.91357 c 8.8221,-2.27856 15.3704,-10.06451 22,-15.94983 11.9645,-10.62128 23.8896,-21.31287 36,-31.76776 6.1094,-5.27423 15.2471,-7.61252 19.8665,-14.37268 6.2444,-9.13834 2.7361,-21.90555 -6.8673,-26.98998 -7.0099,-3.71131 -17.2585,-2.53173 -22.8109,3.18828 -2.5843,2.66225 -3.9183,7.74576 -7.4121,9.28858 -8.0072,3.53589 -23.0339,0.60339 -31.7762,0.60339 0,-14.12027 6.5087,-17.64027 17,-26.5787 13.0616,-11.12824 24.5534,-19.98938 42.9568,-15.1034 6.8701,1.82398 9.093,10.80618 17.0432,12.34183 12.3925,2.39374 23.8245,-5.54553 23.8195,-18.65973 -0.01,-13.28439 -15.0347,-21.72623 -26.8195,-16.63272 -5.9217,2.55942 -7.7688,9.79065 -13.1296,12.02933 -9.1099,3.80426 -21.5852,-1.20172 -30.8704,2.20678 -11.8134,4.33658 -27.15,21.5933 -35.8519,30.6821 -5.7332,5.98813 -3.1481,18.97702 -3.1481,26.71451 v 69 m 89.0038,-132.56558 c 11.3864,-2.06723 15.1514,15.32223 3.9923,18.11728 -12.2188,3.06045 -16.2926,-15.88413 -3.9923,-18.11728 M 921.63495,735.6255 c -3.1479,1.85476 -1.64216,5.62973 -0.0393,7.92825 6.43705,9.23102 13.14813,17.00526 13.14813,29 0,12.69904 -6.87439,24.61768 -17.42746,31.45215 -3.84714,2.49151 -12.62802,3.93793 -14.95293,7.85034 -3.70887,6.24133 5.36318,6.69998 8.95293,5.6543 24.19745,-7.04865 36.69696,-32.15125 31.33487,-55.95679 -1.81241,-8.04633 -6.07748,-15.86905 -11.63503,-21.95602 -2.11036,-2.31141 -5.95236,-5.99253 -9.38118,-3.97223 m 143.68522,40.36267 c 12.0158,-2.18152 14.9722,16.50534 2.9954,18.32174 -12.0045,1.82062 -14.7105,-16.19482 -2.9954,-18.32174 m -8.0039,25.56558 v 1 l -43,37 v -49 l 32.7909,0.60339 10.2091,10.39661 m -373.00001,123 c 4.80603,20.18668 1,45.24982 1,66 h 10 v -48 h 1 l 23.87346,33 11.4267,13.97223 9.69984,1.02777 v -65 h -10 v 48 c -11.65255,-14.68317 -26.82084,-48.99777 -47,-49 m 329.00001,0.51776 c -44.33985,9.45984 -26.52824,75.25119 17,65.96448 44.0378,-9.39539 26.4076,-75.22547 -17,-65.96448 m -245.00001,0.48224 v 65 h 46 v -8 c -8.18228,0 -27.78909,3.63678 -34.56636,-1.02777 -4.1241,-2.83847 -3.98621,-17.21329 0.79475,-19.36884 7.00509,-3.15829 20.11229,-0.60339 27.77161,-0.60339 v -8 h -31 v -19 c 9.87231,0 20.15151,0.83582 29.98071,-0.0587 3.56513,-0.32441 6.77294,-3.78772 3.99074,-7.33796 -2.10013,-2.67982 -8.00564,-1.60334 -10.97145,-1.60334 h -32 m 69,0 c 0,15.20483 -4.5172,39.17688 2.42747,52.99924 8.64905,17.21466 37.82512,18.13046 47.1551,1.00076 7.76799,-14.26196 3.41743,-38.2579 3.41743,-54 h -10 c 0,13.73798 4.09924,35.45203 -1.91975,47.99615 -5.81304,12.11487 -23.67519,11.83765 -29.62346,0.003 -5.91643,-11.77115 -1.45679,-34.91303 -1.45679,-47.99915 h -10 m 79,0 v 65 h 10 v -22 l 12.90973,1.02777 17.2608,19.94446 11.82947,1.02777 -18,-25 c 15.22464,-3.62006 17.53372,-26.36298 5.95679,-35.44214 -10.10282,-7.92306 -27.92099,-4.55786 -39.95679,-4.55786 m 164.00001,0 v 65 h 10 v -65 h -10 m 38,0 v 65 c 13.8146,0 30.3621,2.64853 43,-3.98535 20.1544,-10.57941 21.8996,-42.32993 3,-54.90973 -13.3142,-8.86206 -30.8111,-6.10492 -46,-6.10492 m 83,0 v 65 h 47 v -8 c -9.3101,0 -25.3143,3.12415 -33.8519,-0.60339 -4.5149,-1.97129 -4.7597,-15.57825 -1.5447,-18.79322 5.9246,-5.92459 19.9319,1.31525 27.0787,-2.20678 3.8835,-1.91385 1.7666,-6.65085 -1.7408,-7.24848 -8.514,-1.45065 -18.3014,-0.14813 -26.9413,-0.14813 v -19 h 34 v -9 h -44 m -185,8.3287 c 32.0549,-5.63104 42.1011,42.52079 10,48.57486 -30.92112,5.83149 -41.04725,-43.12085 -10,-48.57486 m -90.00001,25.6713 v -25 c 6.36258,0 15.17685,-1.56158 20.98148,1.45679 7.61233,3.95837 8.44537,16.92325 0.97454,21.4537 -6.03939,3.66245 -15.19021,2.08951 -21.95602,2.08951 m 202.00001,23 v -48 c 9.1487,0 19.6692,-1.44116 27.9853,3.18826 13.5077,7.51944 15.2518,29.45069 2.9213,39.02237 -8.7601,6.8002 -20.4994,5.78937 -30.9066,5.78937 z"
         id="path1-6"
         clip-path="url(#clipPath3)"
         transform="translate(-515.28664,233.15165)" />
      <text
         xml:space="preserve"
         style="font-style:normal;font-variant:normal;font-weight:300;font-stretch:normal;font-size:480px;font-family:'.ADT Slab Soft Numeric';-inkscape-font-specification:'.ADT Slab Soft Numeric, Light';font-variant-ligatures:normal;font-variant-caps:normal;font-variant-numeric:normal;font-variant-east-asian:normal;writing-mode:lr-tb;direction:ltr;opacity:0.986541;fill:#333c83;fill-opacity:1;stroke:#321212;stroke-width:3.78;stroke-linejoin:bevel;stroke-dasharray:none;stroke-opacity:0.930535;paint-order:markers fill stroke"
         x="-1074.9327"
         y="1103.5095"
         id="text2"><tspan
           id="tspan2"
           x="-1074.9327"
           y="1103.5095"
           style="font-style:normal;font-variant:normal;font-weight:300;font-stretch:normal;font-size:480px;font-family:'.ADT Slab Soft Numeric';-inkscape-font-specification:'.ADT Slab Soft Numeric, Light';font-variant-ligatures:normal;font-variant-caps:normal;font-variant-numeric:normal;font-variant-east-asian:normal;fill:#333c83;fill-opacity:1;stroke:#321212;stroke-width:3.78;stroke-dasharray:none;stroke-opacity:0.930535">NEUR  IDE</tspan></text>
    </g>
  </g>
</svg>
