<svg width="1200" height="720" viewBox="0 0 1200 720" fill="none" xmlns="http://www.w3.org/2000/svg">
  <rect width="1200" height="720" rx="40" fill="#101926"/>
  <rect x="28" y="28" width="1144" height="664" rx="28" fill="url(#bg)"/>
  <circle cx="250" cy="180" r="150" fill="#FF8C69" fill-opacity="0.14"/>
  <circle cx="980" cy="570" r="190" fill="#F7B267" fill-opacity="0.12"/>
  <rect x="90" y="86" width="1020" height="548" rx="28" fill="#0F141B" fill-opacity="0.72" stroke="#F2EDE3" stroke-opacity="0.14"/>
  <path d="M120 230C164 230 164 176 208 176C252 176 252 284 296 284C340 284 340 180 384 180C428 180 428 252 472 252C516 252 516 162 560 162C604 162 604 276 648 276C692 276 692 214 736 214C780 214 780 320 824 320C868 320 868 178 912 178C956 178 956 246 1000 246C1044 246 1044 210 1080 210" stroke="#6DD3FF" stroke-width="8" stroke-linecap="round"/>
  <path d="M120 356H248L286 290L316 438L352 198L396 502L440 356H560L598 302L628 404L666 232L710 486L754 356H860L892 312L922 408L956 254L992 448L1026 356H1080" stroke="#FF8C69" stroke-width="8" stroke-linecap="round" stroke-linejoin="round"/>
  <path d="M120 506C170 506 176 472 224 472C272 472 278 540 326 540C374 540 380 438 428 438C476 438 482 530 530 530C578 530 584 466 632 466C680 466 686 560 734 560C782 560 788 490 836 490C884 490 890 536 938 536C986 536 992 470 1040 470C1068 470 1074 490 1080 490" stroke="#C2D46B" stroke-width="8" stroke-linecap="round"/>
  <g opacity="0.88">
    <rect x="132" y="104" width="210" height="72" rx="18" fill="#0C1218" stroke="#F2EDE3" stroke-opacity="0.14"/>
    <text x="162" y="149" fill="#F7F3ED" font-family="IBM Plex Sans, Arial, sans-serif" font-size="26" font-weight="600">Signals</text>
    <rect x="364" y="104" width="260" height="72" rx="18" fill="#0C1218" stroke="#F2EDE3" stroke-opacity="0.14"/>
    <text x="394" y="149" fill="#F7F3ED" font-family="IBM Plex Sans, Arial, sans-serif" font-size="26" font-weight="600">Dynamic Systems</text>
  </g>
  <g opacity="0.8">
    <circle cx="944" cy="152" r="18" fill="#6DD3FF"/>
    <circle cx="994" cy="152" r="18" fill="#FF8C69"/>
    <circle cx="1044" cy="152" r="18" fill="#C2D46B"/>
  </g>
  <defs>
    <linearGradient id="bg" x1="72" y1="54" x2="1104" y2="666" gradientUnits="userSpaceOnUse">
      <stop stop-color="#162230"/>
      <stop offset="1" stop-color="#0B1117"/>
    </linearGradient>
  </defs>
</svg>
