<svg width="1200" height="720" viewBox="0 0 1200 720" fill="none" xmlns="http://www.w3.org/2000/svg">
  <rect width="1200" height="720" rx="40" fill="#0F1319"/>
  <rect x="26" y="26" width="1148" height="668" rx="30" fill="url(#bg)"/>
  <circle cx="1030" cy="156" r="170" fill="#6DD3FF" fill-opacity="0.1"/>
  <circle cx="218" cy="602" r="180" fill="#FF8C69" fill-opacity="0.12"/>
  <rect x="94" y="84" width="1012" height="552" rx="30" fill="#10161E" fill-opacity="0.8" stroke="#F2EDE3" stroke-opacity="0.12"/>
  <rect x="168" y="144" width="864" height="68" rx="20" fill="#182230" stroke="#6DD3FF" stroke-opacity="0.4"/>
  <text x="202" y="187" fill="#F7F3ED" font-family="IBM Plex Sans, Arial, sans-serif" font-size="28" font-weight="600">Applications and Autonomy Behaviors</text>
  <rect x="198" y="240" width="804" height="68" rx="20" fill="#1F2127" stroke="#F7B267" stroke-opacity="0.4"/>
  <text x="232" y="283" fill="#F7F3ED" font-family="IBM Plex Sans, Arial, sans-serif" font-size="28" font-weight="600">Planning, Perception, Control, and Learning Libraries</text>
  <rect x="228" y="336" width="744" height="68" rx="20" fill="#1B261E" stroke="#C2D46B" stroke-opacity="0.4"/>
  <text x="262" y="379" fill="#F7F3ED" font-family="IBM Plex Sans, Arial, sans-serif" font-size="28" font-weight="600">ROS 2, Interfaces, Middleware, Visualization, Integration</text>
  <rect x="258" y="432" width="684" height="68" rx="20" fill="#231A1A" stroke="#FF8C69" stroke-opacity="0.4"/>
  <text x="292" y="475" fill="#F7F3ED" font-family="IBM Plex Sans, Arial, sans-serif" font-size="28" font-weight="600">Simulation, Calibration, Testing, Deployment Tooling</text>
  <rect x="288" y="528" width="624" height="68" rx="20" fill="#131A23" stroke="#DDE8F5" stroke-opacity="0.24"/>
  <text x="322" y="571" fill="#F7F3ED" font-family="IBM Plex Sans, Arial, sans-serif" font-size="28" font-weight="600">Operating System, Devices, Drivers, Compute</text>
  <path d="M600 212V240" stroke="#F2EDE3" stroke-opacity="0.22" stroke-width="4"/>
  <path d="M600 308V336" stroke="#F2EDE3" stroke-opacity="0.22" stroke-width="4"/>
  <path d="M600 404V432" stroke="#F2EDE3" stroke-opacity="0.22" stroke-width="4"/>
  <path d="M600 500V528" stroke="#F2EDE3" stroke-opacity="0.22" stroke-width="4"/>
  <rect x="132" y="102" width="286" height="70" rx="18" fill="#0C1218" stroke="#F2EDE3" stroke-opacity="0.14"/>
  <text x="162" y="146" fill="#F7F3ED" font-family="IBM Plex Sans, Arial, sans-serif" font-size="26" font-weight="600">Robotics Software Stack</text>
  <defs>
    <linearGradient id="bg" x1="72" y1="40" x2="1128" y2="678" gradientUnits="userSpaceOnUse">
      <stop stop-color="#151E2A"/>
      <stop offset="1" stop-color="#0F1319"/>
    </linearGradient>
  </defs>
</svg>
