<svg width="1200" height="720" viewBox="0 0 1200 720" fill="none" xmlns="http://www.w3.org/2000/svg">
  <rect width="1200" height="720" rx="40" fill="#0F141B"/>
  <rect x="26" y="26" width="1148" height="668" rx="30" fill="url(#bg)"/>
  <circle cx="934" cy="142" r="190" fill="#FF8C69" fill-opacity="0.12"/>
  <circle cx="182" cy="548" r="170" fill="#6DD3FF" fill-opacity="0.1"/>
  <rect x="92" y="84" width="1016" height="552" rx="30" fill="#0D131B" fill-opacity="0.78" stroke="#F2EDE3" stroke-opacity="0.12"/>
  <rect x="154" y="156" width="214" height="104" rx="22" fill="#152231" stroke="#6DD3FF" stroke-opacity="0.4"/>
  <text x="192" y="216" fill="#F7F3ED" font-family="IBM Plex Sans, Arial, sans-serif" font-size="28" font-weight="600">Fleet State</text>
  <rect x="494" y="126" width="214" height="104" rx="22" fill="#1E1E22" stroke="#F7B267" stroke-opacity="0.42"/>
  <text x="540" y="186" fill="#F7F3ED" font-family="IBM Plex Sans, Arial, sans-serif" font-size="28" font-weight="600">Planner</text>
  <rect x="834" y="156" width="214" height="104" rx="22" fill="#261919" stroke="#FF8C69" stroke-opacity="0.4"/>
  <text x="874" y="216" fill="#F7F3ED" font-family="IBM Plex Sans, Arial, sans-serif" font-size="28" font-weight="600">Execution</text>
  <path d="M368 208H494" stroke="#F2EDE3" stroke-opacity="0.26" stroke-width="6"/>
  <path d="M708 208H834" stroke="#F2EDE3" stroke-opacity="0.26" stroke-width="6"/>
  <path d="M944 260V356" stroke="#F2EDE3" stroke-opacity="0.26" stroke-width="6"/>
  <path d="M944 356H600" stroke="#F2EDE3" stroke-opacity="0.26" stroke-width="6"/>
  <path d="M600 356V230" stroke="#F2EDE3" stroke-opacity="0.26" stroke-width="6"/>
  <path d="M154 438H1048" stroke="#F2EDE3" stroke-opacity="0.18" stroke-width="4" stroke-dasharray="10 10"/>
  <path d="M214 506H324V580H214V506Z" fill="#152231" stroke="#6DD3FF" stroke-opacity="0.42"/>
  <path d="M438 506H548V580H438V506Z" fill="#1B2418" stroke="#C2D46B" stroke-opacity="0.42"/>
  <path d="M662 506H772V580H662V506Z" fill="#261919" stroke="#FF8C69" stroke-opacity="0.42"/>
  <path d="M886 506H996V580H886V506Z" fill="#1E1E22" stroke="#F7B267" stroke-opacity="0.42"/>
  <circle cx="268" cy="543" r="12" fill="#6DD3FF"/>
  <circle cx="492" cy="543" r="12" fill="#C2D46B"/>
  <circle cx="716" cy="543" r="12" fill="#FF8C69"/>
  <circle cx="940" cy="543" r="12" fill="#F7B267"/>
  <rect x="132" y="102" width="304" height="70" rx="18" fill="#0C1218" stroke="#F2EDE3" stroke-opacity="0.14"/>
  <text x="162" y="146" fill="#F7F3ED" font-family="IBM Plex Sans, Arial, sans-serif" font-size="26" font-weight="600">System-Level Control</text>
  <defs>
    <linearGradient id="bg" x1="72" y1="44" x2="1116" y2="680" gradientUnits="userSpaceOnUse">
      <stop stop-color="#13202C"/>
      <stop offset="1" stop-color="#0F141B"/>
    </linearGradient>
  </defs>
</svg>
